0
SECTION
2
HEADER
9
$INSUNITS
70
4
9
$ACADVER
1
AC1014
9
$HANDSEED
5
FFFF
0
ENDSEC
0
SECTION
2
TABLES
0
TABLE
2
VPORT
5
8
100
AcDbSymbolTable
0
ENDTAB
0
TABLE
2
LTYPE
5
5
100
AcDbSymbolTable
0
LTYPE
5
14
100
AcDbSymbolTableRecord
100
AcDbLinetypeTableRecord
2
BYBLOCK
70
0
0
LTYPE
5
15
100
AcDbSymbolTableRecord
100
AcDbLinetypeTableRecord
2
BYLAYER
70
0
0
ENDTAB
0
TABLE
2
LAYER
5
2
100
AcDbSymbolTable
70
2
0
LAYER
5
50
100
AcDbSymbolTableRecord
100
AcDbLayerTableRecord
2
0
70
0
6
CONTINUOUS
0
ENDTAB
0
TABLE
2
STYLE
5
3
100
AcDbSymbolTable
70
1
0
STYLE
5
11
100
AcDbSymbolTableRecord
100
AcDbTextStyleTableRecord
2
STANDARD
70
0
0
ENDTAB
0
TABLE
2
VIEW
5
6
100
AcDbSymbolTable
70
0
0
ENDTAB
0
TABLE
2
UCS
5
7
100
AcDbSymbolTable
70
0
0
ENDTAB
0
TABLE
2
APPID
5
9
100
AcDbSymbolTable
70
2
0
APPID
5
12
100
AcDbSymbolTableRecord
100
AcDbRegAppTableRecord
2
ACAD
70
0
0
ENDTAB
0
TABLE
2
DIMSTYLE
5
A
100
AcDbSymbolTable
70
1
0
ENDTAB
0
TABLE
2
BLOCK_RECORD
5
1
100
AcDbSymbolTable
70
1
0
BLOCK_RECORD
5
1F
100
AcDbSymbolTableRecord
100
AcDbBlockTableRecord
2
*MODEL_SPACE
0
BLOCK_RECORD
5
1B
100
AcDbSymbolTableRecord
100
AcDbBlockTableRecord
2
*PAPER_SPACE
0
ENDTAB
0
ENDSEC
0
SECTION
2
BLOCKS
0
BLOCK
5
20
100
AcDbEntity
100
AcDbBlockBegin
2
*MODEL_SPACE
0
ENDBLK
5
21
100
AcDbEntity
100
AcDbBlockEnd
0
BLOCK
5
1C
100
AcDbEntity
100
AcDbBlockBegin
2
*PAPER_SPACE
0
ENDBLK
5
1D
100
AcDbEntity
100
AcDbBlockEnd
0
ENDSEC
0
SECTION
2
ENTITIES
0
CIRCLE
5
100
100
AcDbEntity
8
0
100
AcDbCircle
10
52.344552000000007
20
13.197799999999997
30
0
40
0.44999999999999929
210
-0
220
0
230
1
0
CIRCLE
5
101
100
AcDbEntity
8
0
100
AcDbCircle
10
50.344552
20
13.197799999999997
30
0
40
0.44999999999999929
210
-0
220
0
230
1
0
CIRCLE
5
102
100
AcDbEntity
8
0
100
AcDbCircle
10
54.344552000000022
20
13.197799999999997
30
0
40
0.44999999999999929
210
-0
220
0
230
1
0
CIRCLE
5
103
100
AcDbEntity
8
0
100
AcDbCircle
10
21.230000000000015
20
7.0399999999999965
30
0
40
0.89999999999999858
210
-0
220
0
230
1
0
CIRCLE
5
104
100
AcDbEntity
8
0
100
AcDbCircle
10
37.000000000000014
20
11.549999999999994
30
0
40
2.5999999999999979
210
-0
220
0
230
1
0
CIRCLE
5
105
100
AcDbEntity
8
0
100
AcDbCircle
10
60.344552
20
13.197799999999997
30
0
40
0.44999999999999929
210
-0
220
0
230
1
0
CIRCLE
5
106
100
AcDbEntity
8
0
100
AcDbCircle
10
58.344552000000007
20
13.197799999999997
30
0
40
0.44999999999999929
210
-0
220
0
230
1
0
CIRCLE
5
107
100
AcDbEntity
8
0
100
AcDbCircle
10
56.344552000000014
20
13.197799999999997
30
0
40
0.44999999999999929
210
-0
220
0
230
1
0
LWPOLYLINE
5
108
100
AcDbEntity
8
0
100
AcDbPolyline
90
17
70
1
43
0.0
10
62.224657469367784
20
5.6040186643610799
42
0.41418267144779369
10
63.224551999999996
20
6.6040186587991867
10
63.224552000000003
20
13.692799999999995
42
0.41421356237309503
10
62.224552000000003
20
14.692799999999991
10
62.109459000000022
20
14.692799999999995
10
60.823909984360789
20
15.769149000000002
10
42.133277000000007
20
15.769149000000002
42
-0.17781426735020819
10
38.405672516837022
20
17.456514114565341
10
37.596584284859915
20
16.847414658220462
42
-1.000000093057726
10
36.598866285344698
20
18.345599658543293
10
37.418204181543629
20
18.891238548730868
42
-0.12250010181714095
10
36.730834999999985
20
21.654999999999994
42
2.0144862317489132
10
18.330835000000008
20
7.6893280000000042
10
18.330835000000025
20
5.6550000000000011
10
19.250000000000007
20
4.5461069999999992
10
53.45579676190475
20
4.5461069999999992
10
54.462551999999995
20
5.6031999999999904
0
LINE
5
109
100
AcDbEntity
8
0
100
AcDbLine
10
56.826705503680834
20
10.993788091285776
30
0
11
53.826705503680834
21
10.993788091285776
31
0
0
LINE
5
110
100
AcDbEntity
8
0
100
AcDbLine
10
55.401705503687495
20
7.4437880912791021
30
0
11
55.25170550367416
21
7.4437880912791021
31
0
0
LINE
5
111
100
AcDbEntity
8
0
100
AcDbLine
10
57.426705503680829
20
7.3937880912857707
30
0
11
57.426705503680829
21
10.543788091285776
31
0
0
LINE
5
112
100
AcDbEntity
8
0
100
AcDbLine
10
53.226705503680833
20
7.3937880912857707
30
0
11
53.226705503674161
21
10.54378809127911
31
0
0
CIRCLE
5
113
100
AcDbEntity
8
0
100
AcDbCircle
10
60.344552
20
13.197799999999997
30
0
40
0.44999999999999929
210
-0
220
0
230
1
0
CIRCLE
5
114
100
AcDbEntity
8
0
100
AcDbCircle
10
58.344552000000007
20
13.197799999999997
30
0
40
0.44999999999999929
210
-0
220
0
230
1
0
CIRCLE
5
115
100
AcDbEntity
8
0
100
AcDbCircle
10
56.344552000000014
20
13.197799999999997
30
0
40
0.44999999999999929
210
-0
220
0
230
1
0
CIRCLE
5
116
100
AcDbEntity
8
0
100
AcDbCircle
10
54.344552000000022
20
13.197799999999997
30
0
40
0.44999999999999929
210
-0
220
0
230
1
0
CIRCLE
5
117
100
AcDbEntity
8
0
100
AcDbCircle
10
52.344552000000007
20
13.197799999999997
30
0
40
0.44999999999999929
210
-0
220
0
230
1
0
CIRCLE
5
118
100
AcDbEntity
8
0
100
AcDbCircle
10
50.344552
20
13.197799999999997
30
0
40
0.44999999999999929
210
-0
220
0
230
1
0
CIRCLE
5
119
100
AcDbEntity
8
0
100
AcDbCircle
10
22.150000000000002
20
21.550000000000008
30
0
40
1.0000000000000016
210
0
220
-0
230
1
0
ENDSEC
0
SECTION
2
OBJECTS
0
DICTIONARY
5
C
100
AcDbDictionary
3
ACAD_GROUP
350
D
3
ACAD_MLINESTYLE
350
17
0
DICTIONARY
5
D
100
AcDbDictionary
0
DICTIONARY
5
1A
330
C
100
AcDbDictionary
0
DICTIONARY
5
17
100
AcDbDictionary
0
ENDSEC
0
EOF
