0
SECTION
2
HEADER
9
$INSUNITS
70
4
9
$ACADVER
1
AC1014
9
$HANDSEED
5
FFFF
0
ENDSEC
0
SECTION
2
TABLES
0
TABLE
2
VPORT
5
8
100
AcDbSymbolTable
0
ENDTAB
0
TABLE
2
LTYPE
5
5
100
AcDbSymbolTable
0
LTYPE
5
14
100
AcDbSymbolTableRecord
100
AcDbLinetypeTableRecord
2
BYBLOCK
70
0
0
LTYPE
5
15
100
AcDbSymbolTableRecord
100
AcDbLinetypeTableRecord
2
BYLAYER
70
0
0
ENDTAB
0
TABLE
2
LAYER
5
2
100
AcDbSymbolTable
70
2
0
LAYER
5
50
100
AcDbSymbolTableRecord
100
AcDbLayerTableRecord
2
0
70
0
6
CONTINUOUS
0
ENDTAB
0
TABLE
2
STYLE
5
3
100
AcDbSymbolTable
70
1
0
STYLE
5
11
100
AcDbSymbolTableRecord
100
AcDbTextStyleTableRecord
2
STANDARD
70
0
0
ENDTAB
0
TABLE
2
VIEW
5
6
100
AcDbSymbolTable
70
0
0
ENDTAB
0
TABLE
2
UCS
5
7
100
AcDbSymbolTable
70
0
0
ENDTAB
0
TABLE
2
APPID
5
9
100
AcDbSymbolTable
70
2
0
APPID
5
12
100
AcDbSymbolTableRecord
100
AcDbRegAppTableRecord
2
ACAD
70
0
0
ENDTAB
0
TABLE
2
DIMSTYLE
5
A
100
AcDbSymbolTable
70
1
0
ENDTAB
0
TABLE
2
BLOCK_RECORD
5
1
100
AcDbSymbolTable
70
1
0
BLOCK_RECORD
5
1F
100
AcDbSymbolTableRecord
100
AcDbBlockTableRecord
2
*MODEL_SPACE
0
BLOCK_RECORD
5
1B
100
AcDbSymbolTableRecord
100
AcDbBlockTableRecord
2
*PAPER_SPACE
0
ENDTAB
0
ENDSEC
0
SECTION
2
BLOCKS
0
BLOCK
5
20
100
AcDbEntity
100
AcDbBlockBegin
2
*MODEL_SPACE
0
ENDBLK
5
21
100
AcDbEntity
100
AcDbBlockEnd
0
BLOCK
5
1C
100
AcDbEntity
100
AcDbBlockBegin
2
*PAPER_SPACE
0
ENDBLK
5
1D
100
AcDbEntity
100
AcDbBlockEnd
0
ENDSEC
0
SECTION
2
ENTITIES
0
LWPOLYLINE
5
100
100
AcDbEntity
8
0
100
AcDbPolyline
90
79
70
1
43
0.0
10
55.224873000000017
20
-23.469856
10
55.623649999999998
20
-24.163379999999997
10
56.007105999999993
20
-23.942893000000002
10
56.653656000000012
20
-23.432862999999998
42
0.19536768765113946
10
62.743000000000002
20
-8.4428950000000178
10
62.742892999999995
20
1.1120000000000019
10
62.742892999999995
20
17.08400000000001
10
62.743000000000002
20
18.142893000000004
42
0.19903183128227542
10
62.450000000000003
20
18.850000000000009
10
61.035786999999999
20
20.264213000000009
42
0.20030970447370683
10
60.326999999999998
20
20.560000000000009
10
59.344999999999999
20
20.559957000000004
10
50.044000000000004
20
20.559957000000004
10
49.420000000000002
20
20.560000000000009
42
0.32943675964594465
10
48.464707999999987
20
19.844398999999992
42
-0.86396989729907281
10
36.792895000000001
20
21.557107000000002
42
1.6208070980469442
10
13.628456999999992
20
9.9305190000000039
42
-0.1748509824065427
10
19.991135999999994
20
0.30648000000000053
42
-0.40079670665691719
10
19.279008000000001
20
-0.89492400000001804
42
-0.13555427833613223
10
-18.75961599999998
20
-1.036297000000008
42
-0.34127482920150976
10
-19.507106000000007
20
-0.068703000000001874
10
-19.507106000000007
20
4.1428930000000008
42
0.19891256153834999
10
-19.799998999999996
20
4.8500000000000112
10
-20.214212000000025
20
5.2642129999999998
42
0.19891304985682523
10
-20.921319
20
5.5571070000000091
10
-23.007106
20
5.557105999999993
42
-0.18254843106469398
10
-31.735996000000011
20
8.7244170000000043
42
0.17581925919025843
10
-32.377270999999993
20
8.9571070000000006
10
-37.007106000000007
20
8.9571070000000059
42
-0.41421356237309581
10
-39.607106000000002
20
11.557107000000002
10
-39.607106000000002
20
14.342893000000014
42
0.19891256153834175
10
-39.89999899999998
20
15.049999999999986
10
-40.314212000000005
20
15.464213000000004
42
0.19891304542005545
10
-41.021318999999998
20
15.757106999999998
10
-43.144914000000014
20
15.757106000000004
42
-0.36597758536648911
10
-48.074981999999991
20
19.923772999999997
10
-48.059408000000005
20
20.762789999999995
42
0.36597768972585787
10
-49.045421000000005
20
21.596124
10
-61.32731800000002
20
21.596124000000003
42
0.14343503072360086
10
-62.448638000000003
20
20.889016999999981
42
0.10763620973930878
10
-62.757105999999993
20
19.342892999999997
10
-62.757106
20
-10.442893
42
0.22111558527009817
10
-56.653656000000012
20
-23.432862999999994
10
-56.007105999999993
20
-23.942893000000002
10
-55.623649999999998
20
-24.163379999999997
10
-55.224873000058714
20
-23.469856000102119
42
-0.99999900814938303
10
-54.097895000000022
20
-24.117868000000009
10
-54.496672000000004
20
-24.811392999999995
10
-48.601709000000014
20
-28.200997000000001
10
-48.202932000141075
20
-27.507472000245322
42
-0.99999963136569858
10
-47.07595400000001
20
-28.155484000000001
10
-47.474731000000006
20
-28.849008999999999
10
-44.238573000000017
20
-30.709800000000001
42
0.13120440385521132
10
-43.740101999999993
20
-30.842893000000004
10
-26.007106000000011
20
-30.842893
42
-0.20337733693904103
10
-24.137319000000002
20
-31.636267
42
0.20338073730874753
10
-23.418170000000025
20
-31.941410999999988
10
-11.421319000000008
20
-31.941410999999999
42
-0.19891217322101459
10
-10.714211999999996
20
-32.234303999999995
10
-10.299999
20
-32.648517999999996
42
-0.19891193410461838
10
-10.007106000000014
20
-33.355625000000003
10
-10.007106000000014
20
-35.399037
42
0.19891280065437522
10
-9.7142119999999981
20
-36.106144
10
-9.2999990000000032
20
-36.520356999999997
42
0.19891193410499849
10
-8.5928920000000097
20
-36.813251000000001
10
21.978680999999991
20
-36.813251000000001
42
0.19891280065437941
10
22.685787999999985
20
-36.520356999999997
10
23.100000999999999
20
-36.106144
42
0.19891256153833697
10
23.392894000000002
20
-35.399037
10
23.392893999999988
20
-33.442892999999998
42
-0.41581109687426548
10
26.007106000000011
20
-30.842893
10
43.740101999999993
20
-30.842893
42
0.13120440385521526
10
44.238573000000017
20
-30.709800000000001
10
47.474731000000006
20
-28.849008999999999
10
47.07595399994598
20
-28.155483999906021
42
-0.99999963106464973
10
48.202932000000018
20
-27.507472
10
48.601709000000014
20
-28.200997000000001
10
54.496672000000004
20
-24.811392999999995
10
54.09789499998621
20
-24.117867999975982
42
-0.99999900803745512
0
CIRCLE
5
101
100
AcDbEntity
8
0
100
AcDbCircle
10
-47.000000000000014
20
-18.449999999999996
30
0
40
1.1999999999999922
210
0
220
-0
230
1
0
CIRCLE
5
102
100
AcDbEntity
8
0
100
AcDbCircle
10
-55
20
1.0500000000000043
30
0
40
1.0000000000000142
210
0
220
-0
230
1
0
CIRCLE
5
103
100
AcDbEntity
8
0
100
AcDbCircle
10
-25.000000000000018
20
-23.449999999999996
30
0
40
0.39999999999999147
210
0
220
-0
230
1
0
CIRCLE
5
104
100
AcDbEntity
8
0
100
AcDbCircle
10
-27.399999999999984
20
-23.449999999999996
30
0
40
0.39999999999999147
210
0
220
-0
230
1
0
CIRCLE
5
105
100
AcDbEntity
8
0
100
AcDbCircle
10
-22.600000000000016
20
-23.449999999999996
30
0
40
0.39999999999999147
210
0
220
-0
230
1
0
CIRCLE
5
106
100
AcDbEntity
8
0
100
AcDbCircle
10
-48.202885999999992
20
-25.199999999999996
30
0
40
0.54999999999999716
210
0
220
-0
230
1
0
CIRCLE
5
107
100
AcDbEntity
8
0
100
AcDbCircle
10
-52.100000000000009
20
-22.949999999999999
30
0
40
0.54999999999999716
210
0
220
-0
230
1
0
CIRCLE
5
108
100
AcDbEntity
8
0
100
AcDbCircle
10
-60.329200000000007
20
19.642600000000002
30
0
40
0.45000000000001705
210
0
220
-0
230
1
0
CIRCLE
5
109
100
AcDbEntity
8
0
100
AcDbCircle
10
-58.329200000000014
20
19.642600000000002
30
0
40
0.45000000000001705
210
0
220
-0
230
1
0
CIRCLE
5
110
100
AcDbEntity
8
0
100
AcDbCircle
10
-54.329199999999993
20
19.642600000000002
30
0
40
0.45000000000001705
210
0
220
-0
230
1
0
CIRCLE
5
111
100
AcDbEntity
8
0
100
AcDbCircle
10
-52.3292
20
19.642600000000002
30
0
40
0.45000000000001705
210
0
220
-0
230
1
0
CIRCLE
5
112
100
AcDbEntity
8
0
100
AcDbCircle
10
-59.825000000000017
20
-0.52500000000000213
30
0
40
0.50000000000000711
210
0
220
-0
230
1
0
CIRCLE
5
113
100
AcDbEntity
8
0
100
AcDbCircle
10
-59.825000000000017
20
2.0150000000000023
30
0
40
0.50000000000000711
210
0
220
-0
230
1
0
LWPOLYLINE
5
114
100
AcDbEntity
8
0
100
AcDbPolyline
90
4
70
1
43
0.0
10
-26.899999999999995
20
-28.450000000000003
10
-26.899999999999995
20
-25.850000000000005
10
-23.100000000000005
20
-25.850000000000005
10
-23.100000000000005
20
-28.450000000000003
0
LWPOLYLINE
5
115
100
AcDbEntity
8
0
100
AcDbPolyline
90
4
70
1
43
0.0
10
23.100000000000005
20
-28.450000000000003
10
23.100000000000005
20
-25.850000000000005
10
26.899999999999995
20
-25.850000000000005
10
26.899999999999995
20
-28.450000000000003
0
CIRCLE
5
116
100
AcDbEntity
8
0
100
AcDbCircle
10
51.983378000000002
20
-19.233378999999999
30
0
40
1.1000000000000032
210
0
220
-0
230
1
0
CIRCLE
5
117
100
AcDbEntity
8
0
100
AcDbCircle
10
-56.329199999999986
20
19.642600000000002
30
0
40
0.45000000000001705
210
0
220
-0
230
1
0
CIRCLE
5
118
100
AcDbEntity
8
0
100
AcDbCircle
10
52.100000000000009
20
-22.949999999999999
30
0
40
0.54999999999999716
210
0
220
-0
230
1
0
CIRCLE
5
119
100
AcDbEntity
8
0
100
AcDbCircle
10
48.202885999999992
20
-25.199999999999996
30
0
40
0.54999999999999716
210
0
220
-0
230
1
0
CIRCLE
5
120
100
AcDbEntity
8
0
100
AcDbCircle
10
60.244107999999997
20
2.119074000000003
30
0
40
0.49999999999999822
210
0
220
-0
230
1
0
CIRCLE
5
121
100
AcDbEntity
8
0
100
AcDbCircle
10
60.244107999999997
20
-0.42092600000000147
30
0
40
0.49999999999999822
210
0
220
-0
230
1
0
CIRCLE
5
122
100
AcDbEntity
8
0
100
AcDbCircle
10
37
20
11.549999999999994
30
0
40
2.5999999999999979
210
0
220
-0
230
1
0
CIRCLE
5
123
100
AcDbEntity
8
0
100
AcDbCircle
10
30.416621999999993
20
2.3333780000000015
30
0
40
1.0999999999999943
210
0
220
-0
230
1
0
LWPOLYLINE
5
124
100
AcDbEntity
8
0
100
AcDbPolyline
90
4
70
1
43
0.0
10
-60.100000000000016
20
17.650000000000006
42
0.99999999999999989
10
-60.100000000000087
20
15.449999999999999
10
-59.500000000000028
20
15.449999999999999
42
0.99999999999999989
10
-59.499999999999957
20
17.650000000000006
0
CIRCLE
5
125
100
AcDbEntity
8
0
100
AcDbCircle
10
55
20
1.0500000000000043
30
0
40
0.99999999999999645
210
0
220
-0
230
1
0
CIRCLE
5
126
100
AcDbEntity
8
0
100
AcDbCircle
10
-6.6000000000000014
20
-8.4499999999999975
30
0
40
0.89999999999999858
210
0
220
-0
230
1
0
CIRCLE
5
127
100
AcDbEntity
8
0
100
AcDbCircle
10
6.6000000000000014
20
-8.4499999999999975
30
0
40
0.89999999999999858
210
0
220
-0
230
1
0
CIRCLE
5
128
100
AcDbEntity
8
0
100
AcDbCircle
10
27.400000000000002
20
-23.449999999999996
30
0
40
0.39999999999999147
210
0
220
-0
230
1
0
CIRCLE
5
129
100
AcDbEntity
8
0
100
AcDbCircle
10
22.599999999999998
20
-23.449999999999996
30
0
40
0.39999999999999147
210
0
220
-0
230
1
0
CIRCLE
5
130
100
AcDbEntity
8
0
100
AcDbCircle
10
25
20
-23.449999999999996
30
0
40
0.39999999999999147
210
0
220
-0
230
1
0
CIRCLE
5
131
100
AcDbEntity
8
0
100
AcDbCircle
10
-50.329200000000007
20
19.642600000000002
30
0
40
0.45000000000001705
210
0
220
-0
230
1
0
CIRCLE
5
132
100
AcDbEntity
8
0
100
AcDbCircle
10
11.5
20
-33.000000000000021
30
0
40
0.24999999999999967
210
0
220
-0
230
1
0
CIRCLE
5
133
100
AcDbEntity
8
0
100
AcDbCircle
10
13.5
20
-33.000000000000021
30
0
40
0.24999999999999967
210
0
220
-0
230
1
0
CIRCLE
5
134
100
AcDbEntity
8
0
100
AcDbCircle
10
15.5
20
-33.000000000000021
30
0
40
0.24999999999999967
210
0
220
-0
230
1
0
CIRCLE
5
135
100
AcDbEntity
8
0
100
AcDbCircle
10
15.5
20
-35.000000000000021
30
0
40
0.24999999999999967
210
0
220
-0
230
1
0
CIRCLE
5
136
100
AcDbEntity
8
0
100
AcDbCircle
10
13.5
20
-35.000000000000021
30
0
40
0.24999999999999967
210
0
220
-0
230
1
0
CIRCLE
5
137
100
AcDbEntity
8
0
100
AcDbCircle
10
11.5
20
-35.000000000000021
30
0
40
0.24999999999999967
210
0
220
-0
230
1
0
CIRCLE
5
138
100
AcDbEntity
8
0
100
AcDbCircle
10
9.5
20
-35.000000000000021
30
0
40
0.24999999999999967
210
0
220
-0
230
1
0
CIRCLE
5
139
100
AcDbEntity
8
0
100
AcDbCircle
10
9.5
20
-33.000000000000021
30
0
40
0.24999999999999967
210
0
220
-0
230
1
0
CIRCLE
5
140
100
AcDbEntity
8
0
100
AcDbCircle
10
41.19491699999999
20
-8.4517679999999942
30
0
40
0.49999999999999922
210
0
220
-0
230
1
0
LINE
5
141
100
AcDbEntity
8
0
100
AcDbLine
10
41.338840999999995
20
-5.7055369999999961
30
0
11
41.050992999999991
21
-11.197998999999994
31
0
0
LINE
5
142
100
AcDbEntity
8
0
100
AcDbLine
10
-55.401705503687488
20
13.943788091279103
30
0
11
-55.251705503674145
21
13.943788091279103
31
0
0
LINE
5
143
100
AcDbEntity
8
0
100
AcDbLine
10
-57.426705503680822
20
13.893788091285773
30
0
11
-57.426705503680822
21
17.043788091285776
31
0
0
LINE
5
144
100
AcDbEntity
8
0
100
AcDbLine
10
-53.226705503680819
20
13.893788091285773
30
0
11
-53.226705503674154
21
17.043788091279112
31
0
0
LINE
5
145
100
AcDbEntity
8
0
100
AcDbLine
10
-56.826705503680827
20
17.493788091285779
30
1.3877787807814457e-16
11
-53.826705503680827
21
17.493788091285779
31
1.3877787807814457e-16
0
CIRCLE
5
146
100
AcDbEntity
8
0
100
AcDbCircle
10
-60.329200000000007
20
19.642600000000002
30
0
40
0.45000000000001705
210
0
220
-0
230
1
0
CIRCLE
5
147
100
AcDbEntity
8
0
100
AcDbCircle
10
-58.329200000000014
20
19.642600000000002
30
0
40
0.45000000000001705
210
0
220
-0
230
1
0
CIRCLE
5
148
100
AcDbEntity
8
0
100
AcDbCircle
10
-56.329199999999986
20
19.642600000000002
30
0
40
0.45000000000001705
210
0
220
-0
230
1
0
CIRCLE
5
149
100
AcDbEntity
8
0
100
AcDbCircle
10
-54.329199999999993
20
19.642600000000002
30
0
40
0.45000000000001705
210
0
220
-0
230
1
0
CIRCLE
5
150
100
AcDbEntity
8
0
100
AcDbCircle
10
-52.3292
20
19.642600000000002
30
0
40
0.45000000000001705
210
0
220
-0
230
1
0
CIRCLE
5
151
100
AcDbEntity
8
0
100
AcDbCircle
10
-50.329200000000007
20
19.642600000000002
30
0
40
0.45000000000001705
210
0
220
-0
230
1
0
ENDSEC
0
SECTION
2
OBJECTS
0
DICTIONARY
5
C
100
AcDbDictionary
3
ACAD_GROUP
350
D
3
ACAD_MLINESTYLE
350
17
0
DICTIONARY
5
D
100
AcDbDictionary
0
DICTIONARY
5
1A
330
C
100
AcDbDictionary
0
DICTIONARY
5
17
100
AcDbDictionary
0
ENDSEC
0
EOF
