0
SECTION
2
HEADER
9
$INSUNITS
70
4
9
$ACADVER
1
AC1014
9
$HANDSEED
5
FFFF
0
ENDSEC
0
SECTION
2
TABLES
0
TABLE
2
VPORT
5
8
100
AcDbSymbolTable
0
ENDTAB
0
TABLE
2
LTYPE
5
5
100
AcDbSymbolTable
0
LTYPE
5
14
100
AcDbSymbolTableRecord
100
AcDbLinetypeTableRecord
2
BYBLOCK
70
0
0
LTYPE
5
15
100
AcDbSymbolTableRecord
100
AcDbLinetypeTableRecord
2
BYLAYER
70
0
0
ENDTAB
0
TABLE
2
LAYER
5
2
100
AcDbSymbolTable
70
2
0
LAYER
5
50
100
AcDbSymbolTableRecord
100
AcDbLayerTableRecord
2
0
70
0
6
CONTINUOUS
0
ENDTAB
0
TABLE
2
STYLE
5
3
100
AcDbSymbolTable
70
1
0
STYLE
5
11
100
AcDbSymbolTableRecord
100
AcDbTextStyleTableRecord
2
STANDARD
70
0
0
ENDTAB
0
TABLE
2
VIEW
5
6
100
AcDbSymbolTable
70
0
0
ENDTAB
0
TABLE
2
UCS
5
7
100
AcDbSymbolTable
70
0
0
ENDTAB
0
TABLE
2
APPID
5
9
100
AcDbSymbolTable
70
2
0
APPID
5
12
100
AcDbSymbolTableRecord
100
AcDbRegAppTableRecord
2
ACAD
70
0
0
ENDTAB
0
TABLE
2
DIMSTYLE
5
A
100
AcDbSymbolTable
70
1
0
ENDTAB
0
TABLE
2
BLOCK_RECORD
5
1
100
AcDbSymbolTable
70
1
0
BLOCK_RECORD
5
1F
100
AcDbSymbolTableRecord
100
AcDbBlockTableRecord
2
*MODEL_SPACE
0
BLOCK_RECORD
5
1B
100
AcDbSymbolTableRecord
100
AcDbBlockTableRecord
2
*PAPER_SPACE
0
ENDTAB
0
ENDSEC
0
SECTION
2
BLOCKS
0
BLOCK
5
20
100
AcDbEntity
100
AcDbBlockBegin
2
*MODEL_SPACE
0
ENDBLK
5
21
100
AcDbEntity
100
AcDbBlockEnd
0
BLOCK
5
1C
100
AcDbEntity
100
AcDbBlockBegin
2
*PAPER_SPACE
0
ENDBLK
5
1D
100
AcDbEntity
100
AcDbBlockEnd
0
ENDSEC
0
SECTION
2
ENTITIES
0
CIRCLE
5
100
100
AcDbEntity
8
0
100
AcDbCircle
10
-52.055061483411734
20
19.965929136021007
30
0
40
1.4999999999999991
210
0
220
0
230
1
0
CIRCLE
5
101
100
AcDbEntity
8
0
100
AcDbCircle
10
-30.366455707501743
20
-1.6789097526209646
30
0
40
1.4999999999999993
210
0
220
0
230
1
0
CIRCLE
5
102
100
AcDbEntity
8
0
100
AcDbCircle
10
-41.206024332726933
20
9.1412895553123636
30
0
40
15.900586260106673
210
0
220
0
230
1
0
CIRCLE
5
103
100
AcDbEntity
8
0
100
AcDbCircle
10
-41.206024332726933
20
9.1412895553123636
30
0
40
13.5
210
0
220
0
230
1
0
LINE
5
104
100
AcDbEntity
8
0
100
AcDbLine
10
29.846407906426538
20
-7.3099902643164754
30
0
11
32.78544270583113
21
-5.1181677020486411
31
0
0
LINE
5
105
100
AcDbEntity
8
0
100
AcDbLine
10
32.78544270583113
20
-5.1181677020486411
30
0
11
37.766857620076209
21
-3.374672482062866
31
0
0
LINE
5
106
100
AcDbEntity
8
0
100
AcDbLine
10
37.766857620076209
20
-3.374672482062866
30
0
11
38.613698155497865
21
-1.6809914112195368
31
0
0
LINE
5
107
100
AcDbEntity
8
0
100
AcDbLine
10
38.613698155497865
20
-1.6809914112195368
30
0
11
56.297721101067893
21
-1.6809914112195368
31
0
0
LINE
5
108
100
AcDbEntity
8
0
100
AcDbLine
10
56.297721101067893
20
-1.6809914112195368
30
0
11
57.244189934774468
21
2.8444173594673288
31
0
0
LINE
5
109
100
AcDbEntity
8
0
100
AcDbLine
10
57.244189934774468
20
2.8444173594673288
30
0
11
58.99142649624573
21
3.4003562653900037
31
0
0
LINE
5
110
100
AcDbEntity
8
0
100
AcDbLine
10
58.99142649624573
20
3.4003562653900037
30
0
11
60.129777589325506
21
2.3414250160134769
31
0
0
LINE
5
111
100
AcDbEntity
8
0
100
AcDbLine
10
60.129777589325506
20
2.3414250160134769
30
0
11
64.074296493253058
21
2.3414250160134769
31
0
0
LINE
5
112
100
AcDbEntity
8
0
100
AcDbLine
10
18.14892525859808
20
1.5060108438397735
30
0
11
18.862061742788917
21
4.6438113742794664
31
0
0
LINE
5
113
100
AcDbEntity
8
0
100
AcDbLine
10
18.862061742788917
20
4.6438113742794664
30
0
11
18.184582082807623
21
5.9631138700325179
31
0
0
LINE
5
114
100
AcDbEntity
8
0
100
AcDbLine
10
18.184582082807623
20
5.9631138700325179
30
0
11
18.790748094369832
21
7.353730014204654
31
0
0
LINE
5
115
100
AcDbEntity
8
0
100
AcDbLine
10
18.790748094369832
20
7.353730014204654
30
0
11
23.711389835286624
21
12.345685403540525
31
0
0
LINE
5
116
100
AcDbEntity
8
0
100
AcDbLine
10
23.711389835286624
20
12.345685403540525
30
0
11
26.920504014145401
21
19.584020718077543
31
0
0
LINE
5
117
100
AcDbEntity
8
0
100
AcDbLine
10
26.920504014145401
20
19.584020718077543
30
0
11
26.920504014145401
21
26.608415087357301
31
0
0
LINE
5
118
100
AcDbEntity
8
0
100
AcDbLine
10
26.920504014145401
20
26.608415087357301
30
0
11
29.273854411975169
21
32.099566015626777
31
0
0
CIRCLE
5
119
100
AcDbEntity
8
0
100
AcDbCircle
10
-0.03158895295702014
20
8.9696506852831757
30
0
40
6.25
210
0
220
0
230
1
0
LINE
5
120
100
AcDbEntity
8
0
100
AcDbLine
10
2.3429038843983845
20
14.751024550148506
30
0
11
3.9324496544189858
21
15.735854515114633
31
0
0
LINE
5
121
100
AcDbEntity
8
0
100
AcDbLine
10
3.9324496544189858
20
15.735854515114633
30
0
11
6.9396513565662987
21
11.669297667892696
31
0
0
LINE
5
122
100
AcDbEntity
8
0
100
AcDbLine
10
6.9396513565662987
20
11.669297667892696
30
0
11
8.7508069271777487
21
10.302387803280279
31
0
0
LINE
5
123
100
AcDbEntity
8
0
100
AcDbLine
10
8.7508069271777487
20
10.302387803280279
30
0
11
8.682461433947136
21
7.8077773003626216
31
0
0
LINE
5
124
100
AcDbEntity
8
0
100
AcDbLine
10
8.682461433947136
20
7.8077773003626216
30
0
11
7.452242555795956
21
3.2628020005263405
31
0
0
LINE
5
125
100
AcDbEntity
8
0
100
AcDbLine
10
-5.7190721261086184
20
11.560989172458758
30
0
11
-8.3013936338621299
21
11.225051961893662
31
0
0
LINE
5
126
100
AcDbEntity
8
0
100
AcDbLine
10
-8.3013936338621299
20
11.225051961893662
30
0
11
-9.1898850458602013
21
9.4822418845128293
31
0
0
LINE
5
127
100
AcDbEntity
8
0
100
AcDbLine
10
-9.1898850458602013
20
9.4822418845128293
30
0
11
-8.4722573669386847
21
6.8851131417492422
31
0
0
LINE
5
128
100
AcDbEntity
8
0
100
AcDbLine
10
-8.4722573669386847
20
6.8851131417492422
30
0
11
-5.2600191850995071
21
2.8527290411426156
31
0
0
LINE
5
129
100
AcDbEntity
8
0
100
AcDbLine
10
-23.586884986979562
20
33.37462603153314
30
0
11
-21.774582569696715
21
33.37462603153314
31
0
0
LINE
5
130
100
AcDbEntity
8
0
100
AcDbLine
10
-21.774582569696715
20
33.37462603153314
30
0
11
-21.774582569696712
21
36.260732480328727
31
0
0
LINE
5
131
100
AcDbEntity
8
0
100
AcDbLine
10
-21.774582569696712
20
36.260732480328727
30
0
11
10.177472615470723
21
36.260732480328727
31
0
0
ENDSEC
0
SECTION
2
OBJECTS
0
DICTIONARY
5
C
100
AcDbDictionary
3
ACAD_GROUP
350
D
3
ACAD_MLINESTYLE
350
17
0
DICTIONARY
5
D
100
AcDbDictionary
0
DICTIONARY
5
1A
330
C
100
AcDbDictionary
0
DICTIONARY
5
17
100
AcDbDictionary
0
ENDSEC
0
EOF
